<?xml version="1.0" encoding="UTF-8"?>
<svg xmlns="http://www.w3.org/2000/svg" xmlns:xlink="http://www.w3.org/1999/xlink" width="3000px" height="3000px" viewBox="0 0 2250 2250" version="1.1">
<defs>
<clipPath id="clip1">
  <path d="M 987 571 L 1032 571 L 1032 614 L 987 614 Z M 987 571 "/>
</clipPath>
<clipPath id="clip2">
  <path d="M 1053.632812 600.457031 C 1053.632812 600.457031 1019.292969 574.085938 1000.554688 571.996094 C 981.136719 569.828125 971.035156 582.683594 971.035156 582.683594 C 971.035156 582.683594 972.132812 602.777344 996.210938 610.175781 C 1032.675781 621.375 1053.632812 600.457031 1053.632812 600.457031 Z M 1053.632812 600.457031 "/>
</clipPath>
<clipPath id="clip3">
  <path d="M 1110 558 L 1155 558 L 1155 601 L 1110 601 Z M 1110 558 "/>
</clipPath>
<clipPath id="clip4">
  <path d="M 1093.460938 594.292969 C 1093.460938 594.292969 1118.855469 560.242188 1137.605469 558.257812 C 1157.039062 556.199219 1167.058594 569.113281 1167.058594 569.113281 C 1167.058594 569.113281 1165.835938 589.199219 1141.707031 596.460938 C 1105.171875 607.453125 1093.460938 594.292969 1093.460938 594.292969 Z M 1093.460938 594.292969 "/>
</clipPath>
</defs>
<g id="surface1">
<path style=" stroke:none;fill-rule:nonzero;fill:rgb(36.862745%,41.960784%,41.176471%);fill-opacity:1;" d="M 1743.035156 513.128906 L 1050.09375 1248.089844 L 217.667969 521.894531 C 217.667969 521.894531 778.453125 874.90625 1039.371094 874.050781 C 1300.355469 873.203125 1742.972656 513.121094 1742.972656 513.121094 Z M 1743.035156 513.128906 "/>
<path style=" stroke:none;fill-rule:nonzero;fill:rgb(77.647059%,67.45098%,47.843137%);fill-opacity:1;" d="M 723.632812 1618.742188 C 705.101562 1668.160156 707.601562 1704.796875 728.867188 1722.960938 C 747.980469 1739.289062 762.390625 1762.023438 749.753906 1767.707031 C 712.070312 1784.65625 718.472656 1801.636719 721.46875 1815.132812 C 724.464844 1828.625 762.511719 1836.859375 782.480469 1834.382812 C 814.464844 1830.417969 830.832031 1774.214844 815.675781 1759.746094 C 800.519531 1745.277344 858.253906 1691.492188 858.253906 1691.492188 L 827.507812 1629.285156 C 827.507812 1629.285156 802.621094 1605.316406 767.019531 1603.445312 C 748.859375 1602.492188 723.632812 1618.738281 723.632812 1618.738281 Z M 723.632812 1618.742188 "/>
<path style=" stroke:none;fill-rule:nonzero;fill:rgb(77.647059%,67.45098%,47.843137%);fill-opacity:1;" d="M 1213.535156 1761.464844 C 1225.316406 1817.898438 1216.101562 1856.875 1189.375 1872.667969 C 1165.359375 1886.867188 1145.410156 1908.78125 1158.386719 1917.125 C 1197.078125 1942.003906 1190.03125 1959.378906 1184.335938 1973.367188 C 1178.644531 1987.359375 1129.058594 1991.800781 1108.632812 1986.550781 C 1038.871094 1968.628906 1067.5625 1909.835938 1086.882812 1896.941406 C 1106.195312 1884.046875 1027.363281 1840.519531 1052.246094 1758.273438 C 1054.84375 1749.683594 1096.792969 1754.503906 1096.792969 1754.503906 C 1096.792969 1754.503906 1128.542969 1733.105469 1168.246094 1737.371094 C 1188.5 1739.546875 1213.535156 1761.46875 1213.535156 1761.46875 Z M 1213.535156 1761.464844 "/>
<path style=" stroke:none;fill-rule:nonzero;fill:rgb(77.647059%,67.45098%,47.843137%);fill-opacity:1;" d="M 1559.734375 1746.917969 C 1570.144531 1798.65625 1561.835938 1834.425781 1537.941406 1848.96875 C 1516.46875 1862.035156 1498.617188 1882.183594 1510.183594 1889.808594 C 1544.683594 1912.550781 1532.3125 1937.28125 1527.203125 1950.125 C 1522.09375 1962.964844 1482.40625 1966.71875 1463.898438 1959.398438 C 1405.480469 1936.296875 1429.105469 1883.296875 1446.378906 1871.433594 C 1463.652344 1859.570312 1399.835938 1772.835938 1399.835938 1772.835938 L 1455.511719 1740.753906 C 1455.511719 1740.753906 1483.902344 1721.0625 1519.339844 1724.894531 C 1537.421875 1726.847656 1559.734375 1746.914062 1559.734375 1746.914062 Z M 1559.734375 1746.917969 "/>
<path style=" stroke:none;fill-rule:nonzero;fill:rgb(38.039216%,31.372549%,27.843137%);fill-opacity:1;" d="M 1266.558594 957.542969 C 1267.433594 999.800781 1270.535156 1042.695312 1267.925781 1083.511719 C 1259.894531 1209.179688 1240.394531 1314.285156 1240.394531 1314.285156 C 1240.394531 1314.285156 1518.21875 1426.433594 1550.753906 1457.492188 C 1609.164062 1513.242188 1566.796875 1777.410156 1566.796875 1777.410156 L 1103.175781 1796.382812 L 717.714844 1635.839844 C 717.714844 1635.839844 747.546875 1297.417969 778.804688 1063.566406 C 782.933594 1032.660156 790.917969 969.589844 795.1875 940.828125 L 1050.210938 873.460938 L 1266.554688 957.542969 Z M 1266.558594 957.542969 "/>
<path style=" stroke:none;fill-rule:nonzero;fill:rgb(98.431373%,78.823529%,14.901961%);fill-opacity:1;" d="M 1822.910156 457.492188 C 1822.910156 457.492188 1254.078125 749.347656 1243.382812 723.578125 C 1229.484375 690.097656 1206.421875 662.394531 1180.777344 647.519531 C 1146.011719 627.359375 1090.785156 151.222656 1090.785156 151.222656 L 1007.453125 152.179688 L 928.882812 640.183594 C 928.882812 640.183594 877.730469 663.15625 862.203125 681.3125 C 850.679688 694.785156 837.261719 727.609375 832.117188 745.53125 C 827.3125 762.273438 158.59375 491.613281 158.59375 491.613281 C 158.59375 491.613281 223.769531 532.34375 312.292969 589.421875 C 406.679688 650.273438 793.722656 924.023438 791.421875 940.90625 C 784.773438 989.785156 770.53125 1089.046875 761.160156 1174.023438 C 752.277344 1254.558594 748.078125 1322.246094 748.078125 1322.246094 L 847.53125 953.949219 L 935.535156 952.328125 L 938.402344 1105.132812 C 938.402344 1105.132812 1014.386719 1242.1875 1044.753906 1242.496094 C 1077.503906 1242.832031 1131.949219 1104.167969 1131.949219 1104.167969 L 1148.742188 959.957031 L 1202.484375 961.796875 L 1242.917969 1309.101562 C 1242.917969 1309.101562 1266.203125 1155.695312 1269.789062 1104.140625 C 1272.335938 1067.554688 1271.636719 994.121094 1271.042969 957.453125 C 1270.855469 945.796875 1554.933594 684.785156 1639.847656 612.164062 C 1740.753906 525.859375 1822.90625 457.503906 1822.90625 457.503906 Z M 1041.859375 869.125 C 997.132812 870.039062 960.109375 833.183594 959.15625 786.804688 C 958.207031 740.421875 993.691406 702.078125 1038.417969 701.160156 C 1083.140625 700.246094 1120.167969 737.101562 1121.121094 783.480469 C 1122.070312 829.863281 1086.582031 868.207031 1041.859375 869.125 Z M 1041.859375 869.125 "/>
<path style=" stroke:none;fill-rule:nonzero;fill:rgb(13.72549%,12.156863%,12.54902%);fill-opacity:1;" d="M 1136.433594 983.566406 C 1051.8125 981.414062 861.761719 1070.972656 825.167969 1092.511719 C 788.578125 1114.050781 721.347656 1134.558594 721.347656 1184.101562 C 721.347656 1233.640625 689.21875 1281.730469 728.097656 1301.117188 C 766.976562 1320.5 772.789062 1338.964844 779.652344 1351.886719 C 786.511719 1364.808594 784.226562 1379.886719 800.234375 1392.808594 C 816.242188 1405.734375 832.253906 1399.273438 832.253906 1399.273438 C 832.253906 1399.273438 800.234375 1455.273438 843.6875 1455.273438 C 887.140625 1455.273438 866.558594 1485.429688 866.558594 1485.429688 C 866.558594 1485.429688 914.585938 1487.582031 926.023438 1463.886719 C 937.457031 1440.195312 962.613281 1506.96875 980.910156 1494.042969 C 999.207031 1481.121094 1012.929688 1502.660156 1026.652344 1519.890625 C 1040.375 1537.121094 1108.988281 1524.203125 1129.566406 1519.890625 C 1150.152344 1515.582031 1177.59375 1481.117188 1189.03125 1496.195312 C 1200.46875 1511.273438 1207.328125 1487.582031 1207.328125 1487.582031 C 1207.328125 1487.582031 1216.472656 1530.660156 1237.058594 1537.121094 C 1257.644531 1543.582031 1259.929688 1534.96875 1259.929688 1513.429688 C 1259.929688 1491.890625 1280.515625 1522.042969 1280.515625 1522.042969 L 1291.945312 1496.195312 C 1291.945312 1496.195312 1321.683594 1526.351562 1330.828125 1509.117188 C 1339.972656 1491.890625 1326.253906 1470.351562 1326.253906 1470.351562 C 1326.253906 1470.351562 1346.835938 1472.503906 1346.835938 1453.121094 C 1346.835938 1433.734375 1371.996094 1433.734375 1371.996094 1433.734375 C 1371.996094 1433.734375 1382.910156 1407.046875 1382.910156 1394.125 C 1382.910156 1381.203125 1399.4375 1362.652344 1401.726562 1373.425781 C 1404.015625 1384.195312 1408.585938 1345.421875 1422.308594 1334.65625 C 1436.03125 1323.886719 1504.644531 1270.039062 1504.644531 1257.113281 C 1504.644531 1244.1875 1558.429688 1199.734375 1558.429688 1180.351562 C 1558.429688 1160.964844 1592.265625 1144.292969 1601.644531 1129.839844 C 1633.523438 1080.730469 1543.523438 1112.980469 1543.523438 1112.980469 C 1543.523438 1112.980469 1484.039062 1117.667969 1452.023438 1121.976562 C 1420.003906 1126.285156 1136.429688 983.566406 1136.429688 983.566406 Z M 1136.433594 983.566406 "/>
<path style=" stroke:none;fill-rule:nonzero;fill:rgb(74.509804%,18.039216%,14.901961%);fill-opacity:1;" d="M 932.882812 466.808594 C 931.167969 515.269531 881.996094 613.277344 864.84375 661.734375 C 847.691406 710.195312 880.28125 857.199219 909.441406 834.585938 C 938.601562 811.972656 935.171875 727.964844 931.738281 779.664062 C 928.308594 831.355469 856.265625 936.359375 906.011719 907.28125 C 955.753906 878.207031 985.03125 863.265625 1029.625 892.34375 C 1074.222656 921.421875 1121 1031.566406 1175.890625 962.101562 C 1230.78125 892.636719 1212.835938 822.414062 1259.148438 793.335938 C 1305.460938 764.257812 1252.496094 721.511719 1285.085938 695.664062 C 1317.675781 669.816406 1228.492188 620.757812 1245.648438 611.0625 C 1262.800781 601.367188 1304.152344 683.070312 1304.152344 683.070312 C 1304.152344 683.070312 1283.371094 572.890625 1273.078125 569.65625 C 1262.785156 566.425781 1319.390625 579.347656 1319.390625 579.347656 C 1319.390625 579.347656 1309.097656 527.65625 1276.507812 508.269531 C 1243.917969 488.886719 1209.613281 475.960938 1195.890625 442.039062 C 1182.167969 408.113281 1168.445312 325.726562 1060.378906 328.960938 C 875.769531 334.480469 934.589844 418.347656 932.878906 466.8125 Z M 932.882812 466.808594 "/>
<path style=" stroke:none;fill-rule:nonzero;fill:rgb(93.72549%,78.039216%,69.019608%);fill-opacity:1;" d="M 945.410156 600.355469 C 873.367188 422.65625 938.546875 328.964844 1055.1875 328.964844 C 1171.828125 328.964844 1217.570312 445.277344 1200.417969 519.585938 C 1183.261719 593.894531 1187.242188 539.160156 1177.542969 612.203125 C 1170.683594 663.898438 1092.921875 708.054688 1072.34375 711.277344 C 1051.757812 714.507812 996.871094 668.199219 972.855469 642.355469 C 948.839844 616.507812 945.410156 600.351562 945.410156 600.351562 Z M 945.410156 600.355469 "/>
<path style=" stroke:none;fill-rule:nonzero;fill:rgb(93.72549%,78.039216%,69.019608%);fill-opacity:1;" d="M 1072.382812 629.429688 C 1140.996094 629.429688 1207.324219 646.664062 1253.058594 678.972656 C 1286.648438 702.695312 1289.652344 741.433594 1275.929688 760.820312 C 1262.207031 780.203125 1253.058594 801.742188 1259.921875 844.820312 C 1266.78125 887.894531 1339.441406 1039.839844 1335.394531 1098.976562 C 1330.820312 1165.75 1211.890625 1396.210938 1173.011719 1391.90625 C 1134.128906 1387.597656 1056.371094 1217.441406 1006.058594 1204.519531 C 955.746094 1191.59375 924.128906 1132.839844 918.011719 1105.445312 C 908.863281 1064.519531 934.019531 974.058594 977.472656 948.207031 C 1020.925781 922.359375 1017.496094 874.972656 1003.773438 849.125 C 990.050781 823.277344 932.875 778.042969 937.449219 730.660156 C 940.769531 696.273438 928.300781 681.121094 946.597656 661.738281 C 964.894531 642.351562 1033.507812 629.429688 1072.386719 629.429688 Z M 1072.382812 629.429688 "/>
<path style=" stroke:none;fill-rule:nonzero;fill:rgb(98.431373%,78.823529%,14.901961%);fill-opacity:1;" d="M 594.761719 935.492188 C 568.886719 917.320312 541.78125 820.644531 541.78125 820.644531 C 541.78125 820.644531 552.359375 795.980469 577.863281 787.734375 C 608.574219 777.804688 627.949219 785.65625 627.949219 785.65625 C 627.949219 785.65625 670.191406 879.113281 662.324219 910.523438 C 660.078125 919.496094 644.601562 929.1875 633.480469 933.703125 C 623.058594 937.933594 602.691406 941.066406 594.761719 935.496094 Z M 594.761719 935.492188 "/>
<path style=" stroke:none;fill-rule:nonzero;fill:rgb(100%,90.980392%,60.784314%);fill-opacity:1;" d="M 595.210938 937.140625 C 569.335938 918.96875 542.230469 822.292969 542.230469 822.292969 C 542.230469 822.292969 560.488281 826.382812 591.792969 814.1875 C 618.382812 803.832031 628.398438 787.304688 628.398438 787.304688 C 628.398438 787.304688 670.644531 880.765625 662.773438 912.167969 C 660.527344 921.140625 645.050781 930.828125 633.929688 935.34375 C 623.507812 939.578125 603.140625 942.707031 595.210938 937.136719 Z M 595.210938 937.140625 "/>
<path style=" stroke:none;fill-rule:nonzero;fill:rgb(93.72549%,78.039216%,69.019608%);fill-opacity:1;" d="M 1022.058594 681.121094 C 1008.335938 666.042969 962.070312 645 937.4375 668.199219 C 905.417969 698.351562 903.132812 825.433594 900.84375 859.898438 C 899.519531 879.832031 898.554688 939.59375 898.554688 939.59375 C 898.554688 939.59375 836.804688 946.054688 800.214844 943.902344 C 784.074219 942.953125 704.164062 939.59375 704.164062 939.59375 C 704.164062 939.59375 662.996094 911.589844 660.707031 894.359375 C 658.421875 877.128906 661.421875 882.300781 654.558594 862.917969 C 647.699219 843.53125 639.839844 814.792969 632.339844 824.542969 C 624.460938 834.785156 633.976562 849.996094 633.976562 865.070312 C 633.976562 880.148438 628.691406 881.4375 628.691406 881.4375 C 628.691406 881.4375 612.679688 855.589844 603.53125 842.667969 C 594.386719 829.746094 578.375 818.972656 578.375 829.746094 C 578.375 840.515625 585.234375 855.589844 589.8125 866.363281 C 594.386719 877.132812 603.53125 894.359375 592.097656 894.359375 C 580.664062 894.359375 567.765625 849.300781 554.042969 840.6875 C 547.984375 836.882812 546.976562 858.222656 546.976562 858.222656 C 546.976562 858.222656 545.46875 854.339844 539.867188 852.097656 C 532.398438 849.101562 524.316406 851.597656 527.238281 855.035156 C 536.386719 865.800781 541.78125 896.515625 544.070312 902.976562 C 546.359375 909.4375 582.953125 939.59375 601.246094 948.210938 C 619.542969 956.824219 667.570312 974.054688 685.871094 984.824219 C 704.167969 995.59375 797.933594 1019.285156 836.816406 1023.59375 C 875.695312 1027.902344 923.726562 1036.515625 951.167969 1010.671875 C 978.613281 984.824219 985.472656 918.054688 999.195312 877.132812 C 1008.863281 848.304688 1015.304688 830.832031 1024.351562 799.589844 C 1031.210938 775.898438 1033.5 732.820312 1033.5 717.742188 C 1033.5 702.667969 1022.066406 681.125 1022.066406 681.125 Z M 1022.058594 681.121094 "/>
<path style=" stroke:none;fill-rule:nonzero;fill:rgb(92.156863%,77.254902%,68.235294%);fill-opacity:1;" d="M 1381.984375 744.929688 C 1389.703125 747.355469 1315.089844 686.777344 1304.792969 681.121094 C 1294.5 675.46875 1265.34375 656.082031 1248.191406 648.007812 C 1231.039062 639.929688 1210.453125 635.082031 1197.589844 642.351562 C 1184.722656 649.621094 1161.570312 664.96875 1165.855469 685.160156 C 1170.144531 705.355469 1183.867188 734.429688 1192.441406 744.125 C 1201.019531 753.816406 1202.734375 756.507812 1202.734375 756.507812 C 1202.734375 756.507812 1363.113281 832.164062 1387.128906 841.050781 Z M 1381.984375 744.929688 "/>
<path style=" stroke:none;fill-rule:nonzero;fill:rgb(58.823529%,49.803922%,44.705882%);fill-opacity:1;" d="M 1237.007812 1144.214844 C 1143.238281 1172.214844 1118.082031 1178.675781 1083.777344 1185.140625 C 1049.46875 1191.601562 1166.105469 1107.597656 1136.378906 1077.445312 C 1106.648438 1047.292969 960.644531 989.929688 928.261719 1030.0625 C 884.804688 1083.910156 864.222656 1282.070312 880.230469 1333.757812 C 896.242188 1385.453125 937.945312 1423.640625 980.859375 1439.300781 C 1072.34375 1472.683594 1289.613281 1355.300781 1342.210938 1325.140625 L 1237.007812 1144.21875 Z M 1237.007812 1144.214844 "/>
<path style=" stroke:none;fill-rule:nonzero;fill:rgb(93.72549%,78.039216%,69.019608%);fill-opacity:1;" d="M 1342.234375 1325.117188 C 1394.835938 1294.960938 1390.257812 1305.730469 1399.410156 1314.347656 C 1408.558594 1322.960938 1403.980469 1368.195312 1413.132812 1411.269531 C 1422.28125 1454.34375 1429.136719 1497.429688 1433.714844 1529.730469 C 1438.289062 1562.039062 1449.722656 1592.191406 1454.296875 1624.5 C 1458.871094 1656.8125 1527.484375 1783.890625 1561.785156 1822.660156 C 1596.09375 1861.429688 1593.804688 1906.660156 1607.527344 1926.046875 C 1621.25 1945.429688 1621.246094 1956.203125 1632.683594 1975.589844 C 1644.121094 1994.972656 1664.707031 2010.046875 1669.277344 2031.585938 C 1673.851562 2053.128906 1696.722656 2106.976562 1737.886719 2102.664062 C 1779.054688 2098.359375 1797.351562 2070.359375 1797.351562 2031.585938 C 1797.351562 1992.816406 1767.617188 1951.894531 1776.765625 1938.96875 C 1785.917969 1926.046875 1792.777344 1934.664062 1820.222656 1902.355469 C 1847.667969 1870.046875 1875.113281 1824.820312 1888.832031 1798.96875 C 1902.554688 1773.121094 1920.855469 1727.890625 1891.121094 1721.425781 C 1861.386719 1714.960938 1840.804688 1714.960938 1811.074219 1732.191406 C 1792.699219 1742.84375 1747.035156 1801.117188 1735.601562 1816.191406 C 1724.167969 1831.269531 1726.453125 1850.652344 1701.296875 1822.65625 C 1676.140625 1794.65625 1666.992188 1736.5 1660.128906 1708.496094 C 1653.269531 1680.496094 1641.835938 1568.496094 1630.398438 1525.414062 C 1618.960938 1482.339844 1614.390625 1452.183594 1614.390625 1437.109375 C 1614.390625 1422.03125 1606.386719 1394.03125 1606.386719 1378.957031 C 1606.386719 1363.878906 1591.519531 1206.644531 1575.511719 1174.332031 C 1559.5 1142.023438 1555.351562 1109.472656 1504.609375 1107.5625 C 1447.433594 1105.40625 1330.796875 1116.179688 1237.027344 1144.179688 L 1342.226562 1325.101562 Z M 1342.234375 1325.117188 "/>
<path style=" stroke:none;fill-rule:nonzero;fill:rgb(30.196078%,30.196078%,30.980392%);fill-opacity:1;" d="M 1605.035156 1104.015625 C 1500.035156 1095.015625 1399.632812 1060.8125 1307.675781 982.320312 C 1260.914062 942.410156 1263.742188 868.6875 1259.945312 844.832031 C 1253.082031 801.753906 1262.234375 780.214844 1275.957031 760.832031 C 1289.679688 741.445312 1286.671875 702.707031 1253.085938 678.984375 C 1226.707031 660.351562 1160.363281 641.777344 1160.363281 641.777344 C 1160.363281 641.777344 1129.585938 706.984375 1076.984375 708.0625 C 1028.75 709.046875 976.484375 644.757812 976.484375 644.757812 C 976.484375 644.757812 952.726562 652.058594 946.625 658.523438 C 939.269531 666.316406 933.136719 668.019531 933.136719 668.019531 C 933.136719 668.019531 975.035156 701.0625 990.082031 733.910156 C 1010.089844 777.597656 1007.234375 855.605469 1007.234375 855.605469 C 1007.234375 855.605469 1005.382812 907.5625 977.5 948.222656 C 965.632812 965.523438 959.574219 979.960938 950.46875 987.488281 C 936.929688 998.6875 919.9375 1022.375 919.9375 1022.375 C 919.9375 1022.375 817.632812 1105.496094 737.117188 1133.132812 C 586.355469 1184.890625 730.367188 1171.8125 662.859375 1193.890625 C 583.167969 1219.949219 687.613281 1245.644531 687.613281 1245.644531 L 606.605469 1290.648438 C 606.605469 1290.648438 602.070312 1318.730469 674.113281 1317.652344 C 678.78125 1317.582031 686.34375 1361.042969 730.367188 1362.65625 C 762.449219 1363.832031 769.871094 1407.992188 824.875 1387.410156 C 842.113281 1380.957031 856.007812 1414.699219 878.882812 1421.160156 C 900.5625 1427.285156 922.046875 1466.550781 941.886719 1459.414062 C 982.328125 1444.863281 951.085938 1377.199219 975.640625 1371.65625 C 1007.640625 1364.429688 992.214844 1409.691406 1021.265625 1403.8125 C 1049.929688 1398.015625 1000.683594 1287.503906 1215.097656 1344.042969 C 1262.160156 1356.453125 1211.351562 1170.613281 1298.832031 1241.691406 C 1319.921875 1258.824219 1386.492188 1295.390625 1433.773438 1271.308594 C 1462.660156 1256.589844 1415.285156 1224.890625 1446.046875 1203.019531 C 1458.640625 1194.0625 1491.617188 1217.429688 1506.046875 1212.019531 C 1530.046875 1203.019531 1502.433594 1150.898438 1512.046875 1143.019531 C 1541.015625 1119.273438 1548.492188 1173.953125 1568.296875 1154.269531 C 1591.917969 1130.792969 1612.636719 1104.667969 1605.046875 1104.019531 Z M 1605.035156 1104.015625 "/>
<path style=" stroke:none;fill-rule:nonzero;fill:rgb(86.666667%,75.294118%,14.509804%);fill-opacity:1;" d="M 1161.558594 825.675781 C 1161.558594 825.675781 1174.378906 758.898438 1176.367188 736.636719 C 1178.359375 714.324219 1160.339844 641.761719 1160.339844 641.761719 C 1160.339844 641.761719 1226.691406 660.339844 1253.0625 678.96875 C 1286.652344 702.695312 1289.660156 741.433594 1275.9375 760.816406 C 1262.214844 780.203125 1259.925781 844.816406 1259.925781 844.816406 C 1259.925781 844.816406 1238.570312 900.765625 1142.714844 904.046875 C 1048.371094 907.28125 1007.203125 855.585938 1007.203125 855.585938 C 1007.203125 855.585938 1010.0625 777.578125 990.050781 733.890625 C 975.007812 701.046875 933.109375 668 933.109375 668 C 933.109375 668 939.242188 666.296875 946.597656 658.503906 C 952.699219 652.042969 975.277344 644.742188 975.277344 644.742188 C 975.277344 644.742188 1053.082031 739.527344 1086.011719 754.496094 C 1135.511719 776.996094 1161.554688 825.671875 1161.554688 825.671875 Z M 1161.558594 825.675781 "/>
<path style=" stroke:none;fill-rule:nonzero;fill:rgb(93.72549%,78.039216%,69.019608%);fill-opacity:1;" d="M 1472.585938 769.433594 C 1461.148438 756.511719 1396.96875 707.792969 1374.246094 689.738281 C 1345.082031 666.582031 1317.070312 642.355469 1307.921875 631.582031 C 1299.664062 621.867188 1259.769531 578.851562 1238.609375 568.949219 C 1243.789062 568.164062 1249.082031 565.398438 1250.742188 558.351562 C 1252.269531 551.882812 1247.363281 548.160156 1245.734375 547.125 C 1237.484375 541.875 1230.34375 541.820312 1222.441406 540.582031 C 1212.148438 538.964844 1199.285156 543.003906 1199.285156 548.65625 C 1199.285156 549.644531 1199.667969 550.578125 1200.269531 551.453125 C 1197.617188 550.378906 1194.847656 549.765625 1192.421875 550.273438 C 1184.703125 551.890625 1178.699219 562.386719 1182.988281 564.8125 C 1183.660156 565.195312 1184.496094 565.722656 1185.402344 566.328125 C 1182.207031 564.636719 1179.074219 563.6875 1176.984375 564.8125 C 1171.328125 567.855469 1166.421875 581.644531 1167.386719 585.257812 C 1161.957031 583.742188 1160.203125 589.5 1158.117188 591.464844 C 1152.972656 596.3125 1152.972656 604.390625 1156.402344 608.429688 C 1159.832031 612.464844 1165.835938 614.082031 1165.835938 620.542969 C 1165.835938 627.003906 1170.125 635.890625 1170.125 639.929688 C 1170.125 643.96875 1165.835938 655.273438 1168.410156 658.507812 C 1170.980469 661.738281 1193.28125 660.929688 1194.140625 652.042969 L 1194.820312 650.527344 C 1199.433594 645.472656 1226.992188 659.605469 1241.308594 663.351562 C 1256.746094 667.390625 1265.324219 669.8125 1272.183594 669.8125 C 1279.042969 669.8125 1321.070312 723.125 1327.929688 735.238281 C 1334.792969 747.355469 1367.382812 802.277344 1375.101562 804.703125 L 1387.109375 841.046875 C 1408.8125 849.078125 1422.273438 857.742188 1440.570312 857.742188 C 1458.867188 857.742188 1484.023438 849.125 1488.597656 827.585938 C 1493.171875 806.046875 1484.023438 782.355469 1472.585938 769.429688 Z M 1472.585938 769.433594 "/>
<path style=" stroke:none;fill-rule:nonzero;fill:rgb(76.862745%,60.392157%,42.352941%);fill-opacity:1;" d="M 1385.660156 1019.265625 C 1385.660156 1019.265625 1331.460938 1036.105469 1254.746094 1048.042969 C 1220.871094 1053.316406 1179.167969 1047.9375 1139.230469 1049.421875 C 1088.507812 1051.304688 1040.121094 1055.445312 996.183594 1048.09375 C 930.167969 1037.054688 919.675781 1021.960938 919.675781 1021.960938 C 919.675781 1021.960938 924.824219 994.496094 948.835938 975.113281 C 961.425781 964.949219 982.824219 940.324219 982.824219 940.324219 C 982.824219 940.324219 1043.289062 978.917969 1139.234375 973.496094 C 1225 968.648438 1277.03125 943.882812 1277.03125 943.882812 C 1277.03125 943.882812 1297.042969 975.109375 1314.769531 991.265625 C 1328.953125 1004.191406 1385.664062 1019.265625 1385.664062 1019.265625 Z M 1385.660156 1019.265625 "/>
<path style=" stroke:none;fill-rule:nonzero;fill:rgb(30.196078%,30.196078%,30.980392%);fill-opacity:1;" d="M 927.109375 1006.367188 C 931.300781 1008.355469 935.53125 1010.257812 939.757812 1012.164062 C 943.984375 1014.074219 948.226562 1015.941406 952.488281 1017.769531 C 961.003906 1021.429688 969.605469 1024.882812 978.253906 1028.179688 C 986.914062 1031.433594 995.671875 1034.46875 1004.582031 1036.78125 C 1013.542969 1038.964844 1022.613281 1041.015625 1031.660156 1042.949219 C 1067.851562 1050.765625 1104.625 1056.058594 1141.601562 1057.292969 C 1146.21875 1057.449219 1150.855469 1057.566406 1155.441406 1057.527344 C 1160.050781 1057.488281 1164.65625 1057.3125 1169.253906 1057.019531 C 1178.453125 1056.421875 1187.621094 1055.3125 1196.730469 1053.839844 C 1214.964844 1050.894531 1232.910156 1046.273438 1250.710938 1041.171875 C 1259.613281 1038.609375 1268.476562 1035.894531 1277.34375 1033.175781 C 1286.226562 1030.476562 1295.0625 1027.734375 1303.851562 1024.78125 C 1321.449219 1018.964844 1338.855469 1012.542969 1355.933594 1005.289062 C 1347.558594 1009.285156 1339.015625 1012.921875 1330.40625 1016.394531 C 1321.796875 1019.871094 1313.121094 1023.175781 1304.382812 1026.324219 C 1295.640625 1029.445312 1286.800781 1032.339844 1277.972656 1035.171875 C 1269.148438 1038.027344 1260.316406 1040.882812 1251.425781 1043.59375 C 1233.671875 1049.039062 1215.625 1053.765625 1197.242188 1056.902344 C 1188.054688 1058.480469 1178.78125 1059.613281 1169.46875 1060.242188 C 1164.8125 1060.554688 1160.144531 1060.746094 1155.476562 1060.792969 C 1150.785156 1060.847656 1146.148438 1060.738281 1141.492188 1060.59375 C 1122.886719 1060.003906 1104.332031 1058.289062 1085.902344 1055.769531 C 1067.472656 1053.234375 1049.1875 1049.765625 1031.054688 1045.703125 C 1026.523438 1044.679688 1022.003906 1043.601562 1017.492188 1042.503906 L 1010.730469 1040.835938 C 1008.484375 1040.269531 1006.226562 1039.722656 1003.964844 1039.089844 C 994.964844 1036.5625 986.226562 1033.332031 977.589844 1029.890625 C 968.953125 1026.457031 960.476562 1022.640625 952.0625 1018.71875 C 943.65625 1014.785156 935.316406 1010.703125 927.109375 1006.367188 Z M 927.109375 1006.367188 "/>
<path style=" stroke:none;fill-rule:nonzero;fill:rgb(30.196078%,30.196078%,30.980392%);fill-opacity:1;" d="M 937.460938 989.117188 C 941.226562 990.800781 945.007812 992.4375 948.796875 994.066406 C 952.578125 995.710938 956.371094 997.332031 960.171875 998.929688 C 967.769531 1002.125 975.414062 1005.214844 983.09375 1008.199219 C 990.765625 1011.191406 998.488281 1014.054688 1006.289062 1016.652344 C 1010.183594 1017.953125 1014.101562 1019.183594 1018.046875 1020.277344 C 1022.015625 1021.378906 1025.988281 1022.445312 1029.972656 1023.449219 C 1045.914062 1027.492188 1062.066406 1030.636719 1078.367188 1032.757812 C 1094.65625 1034.945312 1111.066406 1036.199219 1127.503906 1036.703125 C 1143.941406 1037.230469 1160.40625 1037.21875 1176.746094 1035.71875 C 1184.914062 1034.972656 1193.050781 1033.914062 1201.121094 1032.449219 C 1209.191406 1030.996094 1217.199219 1029.164062 1225.140625 1027.058594 C 1241.027344 1022.859375 1256.695312 1017.667969 1272.378906 1012.628906 C 1280.210938 1010.089844 1288 1007.40625 1295.722656 1004.546875 C 1299.578125 1003.105469 1303.410156 1001.601562 1307.191406 999.972656 C 1309.082031 999.160156 1310.957031 998.3125 1312.820312 997.433594 C 1314.671875 996.535156 1316.527344 995.628906 1318.253906 994.5 C 1316.597656 995.734375 1314.792969 996.753906 1312.992188 997.765625 C 1311.183594 998.769531 1309.339844 999.699219 1307.480469 1000.601562 C 1303.761719 1002.40625 1299.984375 1004.089844 1296.183594 1005.707031 C 1288.585938 1008.960938 1280.851562 1011.878906 1273.082031 1014.683594 C 1269.195312 1016.097656 1265.285156 1017.421875 1261.375 1018.730469 L 1249.621094 1022.625 C 1241.765625 1025.175781 1233.871094 1027.648438 1225.882812 1029.816406 C 1209.921875 1034.207031 1193.558594 1037.386719 1177.039062 1038.902344 C 1160.515625 1040.460938 1143.921875 1040.507812 1127.398438 1040.03125 C 1110.863281 1039.472656 1094.339844 1038.167969 1077.9375 1035.90625 C 1061.546875 1033.601562 1045.273438 1030.355469 1029.296875 1026.050781 C 1025.300781 1024.980469 1021.320312 1023.851562 1017.359375 1022.683594 C 1013.375 1021.511719 1009.441406 1020.199219 1005.539062 1018.824219 C 997.742188 1016.039062 990.066406 1012.976562 982.445312 1009.792969 C 974.832031 1006.59375 967.292969 1003.226562 959.792969 999.789062 C 956.042969 998.066406 952.304688 996.320312 948.574219 994.554688 C 944.855469 992.769531 941.148438 990.960938 937.460938 989.117188 Z M 937.460938 989.117188 "/>
<path style=" stroke:none;fill-rule:nonzero;fill:rgb(30.196078%,30.196078%,30.980392%);fill-opacity:1;" d="M 951.183594 975.089844 C 954.667969 976.558594 958.175781 977.964844 961.683594 979.371094 C 965.1875 980.78125 968.703125 982.164062 972.230469 983.515625 C 979.28125 986.234375 986.386719 988.789062 993.515625 991.261719 C 1000.644531 993.734375 1007.835938 996.015625 1015.074219 998.070312 C 1018.691406 999.097656 1022.339844 1000.011719 1026.003906 1000.921875 C 1029.664062 1001.828125 1033.332031 1002.703125 1037.007812 1003.53125 C 1051.707031 1006.878906 1066.546875 1009.574219 1081.488281 1011.550781 C 1096.421875 1013.566406 1111.445312 1014.925781 1126.5 1015.707031 C 1141.554688 1016.46875 1156.648438 1016.941406 1171.671875 1016.34375 C 1179.1875 1016.03125 1186.6875 1015.5 1194.148438 1014.613281 C 1201.613281 1013.734375 1209.03125 1012.511719 1216.386719 1010.960938 C 1231.109375 1007.886719 1245.5625 1003.523438 1259.925781 998.867188 C 1274.417969 994.71875 1287.941406 987.929688 1301.105469 980.476562 C 1294.84375 984.722656 1288.308594 988.570312 1281.609375 992.128906 C 1278.257812 993.90625 1274.835938 995.570312 1271.316406 997.039062 C 1267.789062 998.539062 1264.179688 999.691406 1260.617188 1000.949219 C 1246.3125 1005.855469 1231.835938 1010.46875 1216.984375 1013.746094 C 1202.144531 1017.03125 1186.984375 1018.917969 1171.804688 1019.546875 C 1164.21875 1019.871094 1156.621094 1019.933594 1149.039062 1019.804688 C 1141.460938 1019.675781 1133.886719 1019.441406 1126.320312 1019.019531 C 1111.1875 1018.183594 1096.074219 1016.785156 1081.054688 1014.691406 C 1066.042969 1012.5625 1051.121094 1009.75 1036.382812 1006.203125 C 1032.699219 1005.3125 1029.027344 1004.382812 1025.367188 1003.417969 C 1021.707031 1002.457031 1018.039062 1001.464844 1014.40625 1000.351562 C 1007.140625 998.152344 999.996094 995.609375 992.90625 992.953125 C 985.8125 990.292969 978.820312 987.398438 971.859375 984.433594 C 964.902344 981.464844 957.992188 978.382812 951.183594 975.089844 Z M 951.183594 975.089844 "/>
<path style=" stroke:none;fill-rule:nonzero;fill:rgb(90.196078%,90.588235%,90.980392%);fill-opacity:1;" d="M 1195.835938 996.167969 C 1195.835938 1029.195312 1166.269531 1055.964844 1129.796875 1055.964844 C 1093.320312 1055.964844 1063.757812 1029.195312 1063.757812 996.167969 C 1063.757812 963.136719 1093.320312 936.363281 1129.796875 936.363281 C 1166.269531 936.363281 1195.835938 963.136719 1195.835938 996.167969 Z M 1195.835938 996.167969 "/>
<path style=" stroke:none;fill-rule:nonzero;fill:rgb(90.196078%,90.588235%,90.980392%);fill-opacity:1;" d="M 974.058594 951.464844 C 974.058594 951.464844 947.757812 959.003906 1077.542969 1005.851562 C 1122.417969 1022.050781 1098.128906 984.851562 1098.128906 984.851562 L 974.054688 951.464844 Z M 974.058594 951.464844 "/>
<path style=" stroke:none;fill-rule:nonzero;fill:rgb(90.196078%,90.588235%,90.980392%);fill-opacity:1;" d="M 1283.808594 952.515625 C 1283.808594 952.515625 1309.101562 969.746094 1219.90625 993.4375 C 1173.652344 1005.722656 1176.890625 979.4375 1176.890625 979.4375 L 1283.8125 952.515625 Z M 1283.808594 952.515625 "/>
<path style=" stroke:none;fill-rule:nonzero;fill:rgb(57.254902%,42.745098%,35.294118%);fill-opacity:1;" d="M 991.160156 985.890625 L 974.210938 980.117188 L 986.359375 948.242188 L 1003.308594 953.941406 Z M 991.160156 985.890625 "/>
<path style=" stroke:none;fill-rule:nonzero;fill:rgb(57.254902%,42.745098%,35.294118%);fill-opacity:1;" d="M 1021.460938 996.316406 L 1004.433594 990.839844 L 1016.058594 958.742188 L 1033.085938 964.214844 Z M 1021.460938 996.316406 "/>
<path style=" stroke:none;fill-rule:nonzero;fill:rgb(57.254902%,42.745098%,35.294118%);fill-opacity:1;" d="M 1053.933594 1006.742188 L 1036.683594 1001.867188 L 1047.035156 969.390625 L 1064.285156 974.265625 Z M 1053.933594 1006.742188 "/>
<path style=" stroke:none;fill-rule:nonzero;fill:rgb(75.294118%,76.078431%,76.862745%);fill-opacity:1;" d="M 1136.660156 1023.617188 C 1131.59375 1026.433594 1125.039062 1026.945312 1118.75 1025.265625 C 1112.464844 1023.578125 1106.457031 1019.523438 1102.445312 1013.640625 C 1100.464844 1010.703125 1098.96875 1007.34375 1098.214844 1003.785156 C 1098.039062 1002.898438 1097.855469 1002 1097.75 1001.097656 L 1097.660156 1000.421875 L 1097.640625 1000.25 L 1097.636719 1000.207031 L 1097.636719 999.855469 L 1097.628906 999.800781 L 1097.609375 999.578125 L 1097.535156 998.683594 C 1097.519531 996.417969 1097.65625 994.71875 1097.929688 992.855469 C 1099.097656 985.476562 1103.257812 978.628906 1108.972656 973.78125 C 1114.683594 968.890625 1121.96875 965.882812 1129.339844 965.128906 C 1132.980469 964.777344 1136.789062 964.839844 1140.203125 965.523438 C 1143.84375 966.152344 1147.214844 967.316406 1150.347656 968.9375 C 1156.570312 972.167969 1161.519531 977.257812 1163.953125 983.101562 C 1166.398438 988.90625 1166.300781 995.417969 1163.246094 1000.191406 C 1160.238281 995.433594 1156.710938 992.476562 1153.109375 990.65625 C 1149.527344 988.835938 1146 988.070312 1142.761719 987.964844 C 1141.167969 987.902344 1139.550781 988.035156 1138.164062 988.230469 C 1136.546875 988.507812 1135.257812 988.765625 1133.925781 989.257812 C 1131.355469 990.171875 1129.171875 991.433594 1127.386719 992.941406 C 1125.601562 994.460938 1124.28125 996.144531 1123.300781 998.085938 C 1123.050781 998.550781 1122.851562 999.214844 1122.683594 999.324219 L 1122.554688 1000.214844 L 1122.523438 1000.4375 L 1122.511719 1000.492188 C 1122.507812 1000.785156 1122.515625 1000.128906 1122.511719 1000.199219 L 1122.507812 1000.210938 L 1122.492188 1000.265625 L 1122.433594 1000.476562 C 1122.332031 1000.765625 1122.28125 1001.054688 1122.203125 1001.351562 C 1122.007812 1002.527344 1121.867188 1003.808594 1121.992188 1005.199219 C 1122.40625 1010.785156 1126.589844 1018.144531 1136.660156 1023.617188 Z M 1136.660156 1023.617188 "/>
<path style=" stroke:none;fill-rule:nonzero;fill:rgb(93.72549%,78.039216%,69.019608%);fill-opacity:1;" d="M 1134.109375 1374.691406 C 1144.847656 1403.195312 1148.976562 1426.382812 1168.414062 1443.613281 C 1192.113281 1464.621094 1199.289062 1482.382812 1271.328125 1469.460938 C 1343.371094 1456.535156 1384.542969 1420.996094 1394.832031 1372.539062 C 1405.125 1324.074219 1425.707031 1152.839844 1425.707031 1088.226562 C 1425.707031 1023.609375 1418.847656 942.839844 1405.125 897.609375 C 1391.402344 852.375 1377.679688 829.761719 1343.375 810.375 C 1309.070312 790.992188 1287.359375 798.5 1278.195312 813.605469 C 1250.75 858.839844 1161.554688 1046.226562 1144.402344 1097.917969 C 1127.996094 1147.351562 1136.398438 1204.535156 1122.675781 1249.769531 C 1106.988281 1301.472656 1121.53125 1341.3125 1134.109375 1374.695312 Z M 1134.109375 1374.691406 "/>
<path style=" stroke:none;fill-rule:nonzero;fill:rgb(91.372549%,76.470588%,67.843137%);fill-opacity:1;" d="M 1367.132812 1261.367188 C 1330.394531 1394.332031 1270.375 1486.390625 1205.121094 1470.640625 C 1161.023438 1459.996094 1159.914062 1289.3125 1193.867188 1155.609375 C 1229.871094 1013.84375 1294.023438 941.085938 1339.382812 941.085938 C 1384.742188 941.085938 1414.390625 1090.351562 1367.136719 1261.367188 Z M 1367.132812 1261.367188 "/>
<path style=" stroke:none;fill-rule:nonzero;fill:rgb(93.72549%,78.039216%,69.019608%);fill-opacity:1;" d="M 779.628906 1433.941406 C 768.195312 1444.710938 761.332031 1451.175781 777.34375 1483.484375 C 793.351562 1515.789062 820.796875 1554.5625 852.816406 1565.328125 C 884.832031 1576.097656 893.980469 1586.871094 921.425781 1597.636719 C 948.871094 1608.40625 967.167969 1610.5625 967.167969 1623.484375 C 967.167969 1636.40625 958.019531 1657.949219 978.601562 1668.71875 C 999.183594 1679.484375 1015.195312 1701.027344 1033.492188 1694.566406 C 1051.789062 1688.101562 1076.945312 1679.488281 1086.09375 1645.023438 C 1095.242188 1610.5625 1111.25 1591.179688 1129.546875 1548.101562 C 1147.84375 1505.023438 1177.574219 1472.71875 1186.722656 1457.636719 C 1195.871094 1442.558594 1211.878906 1426.40625 1234.75 1387.636719 C 1257.621094 1348.867188 1307.9375 1239.015625 1314.796875 1202.402344 C 1321.65625 1165.785156 1360.539062 1066.703125 1362.824219 1030.089844 C 1365.109375 993.472656 1378.832031 974.085938 1385.691406 941.78125 C 1392.554688 909.472656 1342.238281 859.933594 1323.941406 836.242188 C 1305.648438 812.550781 1301.074219 806.085938 1278.203125 813.628906 C 1255.332031 821.164062 1223.3125 857.78125 1198.15625 911.628906 C 1173 965.476562 1131.828125 1051.632812 1122.683594 1122.710938 C 1113.535156 1193.789062 1099.8125 1241.171875 1088.378906 1303.640625 C 1076.945312 1366.101562 1072.371094 1402.714844 1056.363281 1443.640625 C 1040.351562 1484.566406 1054.074219 1453.335938 1044.925781 1483.492188 C 1035.777344 1513.644531 1028.914062 1543.796875 1012.90625 1530.875 C 996.898438 1517.953125 928.285156 1500.722656 914.566406 1487.796875 C 900.84375 1474.875 850.527344 1451.183594 832.230469 1442.566406 C 813.933594 1433.949219 779.628906 1433.949219 779.628906 1433.949219 Z M 779.628906 1433.941406 "/>
<path style=" stroke:none;fill-rule:nonzero;fill:rgb(13.72549%,12.156863%,12.54902%);fill-opacity:1;" d="M 1313.660156 894.355469 C 1295.363281 870.660156 1278.429688 868.507812 1254.195312 868.507812 C 1230.183594 868.507812 1208.457031 881.429688 1191.304688 911.585938 C 1179.195312 932.871094 1169.289062 960.273438 1157.132812 990.089844 C 1311.664062 1061.546875 1272.207031 1152.003906 1272.207031 1152.003906 C 1272.207031 1152.003906 1289.359375 1097.082031 1144.164062 1024.226562 C 1141.382812 1032.148438 1138.746094 1040.132812 1136.273438 1048.125 C 1219.035156 1091.429688 1247.128906 1115.929688 1255.914062 1153.621094 C 1259.8125 1170.359375 1250.007812 1221.933594 1250.007812 1221.933594 C 1262.773438 1195.621094 1244.136719 1133.746094 1126.527344 1086.886719 C 1124.417969 1095.800781 1122.605469 1104.609375 1121.152344 1113.222656 C 1301.542969 1183.300781 1231.898438 1276.390625 1231.898438 1276.390625 C 1231.898438 1276.390625 1262.664062 1211.015625 1115.730469 1147.59375 C 1114.3125 1156.773438 1112.824219 1165.578125 1111.28125 1174.128906 C 1273.957031 1243.195312 1207.882812 1330.511719 1207.882812 1330.511719 C 1207.882812 1330.511719 1237.214844 1272.425781 1103.992188 1211.417969 C 1102.75 1217.382812 1101.496094 1223.308594 1100.234375 1229.199219 C 1250.332031 1298.566406 1179.15625 1390.859375 1179.15625 1390.859375 C 1179.15625 1390.859375 1214.984375 1330.5 1092.269531 1269.765625 C 1090.039062 1280.433594 1087.847656 1291.363281 1085.71875 1302.753906 C 1214.097656 1370.839844 1144.613281 1452.230469 1144.613281 1452.230469 C 1144.613281 1452.230469 1180.703125 1401.578125 1077.523438 1343.734375 C 1063.105469 1401.128906 1059.371094 1409.609375 1046.078125 1443.589844 C 1030.066406 1484.511719 1023.578125 1498.472656 1002.625 1500.664062 C 982.042969 1502.820312 935.15625 1487.746094 921.4375 1474.820312 C 907.714844 1461.898438 843.675781 1444.667969 825.382812 1436.050781 C 807.085938 1427.433594 772.460938 1427.742188 759.058594 1437.128906 C 737.402344 1452.292969 733.902344 1472.667969 749.910156 1504.976562 C 765.921875 1537.285156 796.796875 1577.132812 828.8125 1587.902344 C 860.832031 1598.671875 869.980469 1609.445312 897.421875 1620.210938 C 924.867188 1630.980469 946.164062 1633.136719 946.164062 1646.058594 C 946.164062 1658.980469 939.609375 1661.914062 954.597656 1682.292969 C 968.363281 1701.003906 1022.066406 1730.0625 1040.359375 1723.601562 C 1058.660156 1717.136719 1093.25 1705.835938 1110.117188 1674.058594 C 1124.980469 1646.054688 1142.132812 1597.597656 1160.429688 1554.519531 C 1178.726562 1511.4375 1184.445312 1498.515625 1193.59375 1483.4375 C 1202.742188 1468.363281 1211.886719 1448.976562 1234.757812 1410.207031 C 1257.632812 1371.433594 1307.945312 1261.585938 1314.804688 1224.96875 C 1321.667969 1188.355469 1355.546875 1111.308594 1362.835938 1075.277344 C 1367.40625 1052.660156 1371.980469 1035.433594 1378.839844 1003.125 C 1385.703125 970.816406 1331.957031 918.042969 1313.660156 894.351562 Z M 1313.660156 894.355469 "/>
<path style=" stroke:none;fill-rule:nonzero;fill:rgb(45.882353%,38.431373%,27.45098%);fill-opacity:1;" d="M 741.890625 1460.792969 C 731.089844 1465.480469 733.886719 1472.640625 749.894531 1504.949219 C 765.902344 1537.257812 796.777344 1577.105469 828.792969 1587.875 C 860.816406 1598.644531 869.960938 1609.414062 897.40625 1620.183594 C 924.851562 1630.953125 943.148438 1633.109375 943.148438 1646.027344 C 943.148438 1658.953125 942.003906 1672.953125 961.441406 1691.261719 C 978.089844 1706.945312 1022.050781 1730.03125 1040.34375 1723.570312 C 1058.640625 1717.109375 1072.769531 1723.667969 1081.507812 1689.109375 C 1087.226562 1666.492188 1083.941406 1651.25 1038.910156 1618.394531 C 1025.128906 1608.34375 981.511719 1596.179688 981.511719 1596.179688 C 981.511719 1596.179688 920.03125 1546.03125 867.667969 1511.414062 C 813.921875 1475.875 777.347656 1445.398438 741.878906 1460.796875 Z M 741.890625 1460.792969 "/>
<path style=" stroke:none;fill-rule:nonzero;fill:rgb(13.72549%,12.156863%,12.54902%);fill-opacity:1;" d="M 1910.132812 1713.464844 C 1908.421875 1712.210938 1906.644531 1710.976562 1904.835938 1709.757812 C 1880.8125 1696.183594 1826.378906 1699.484375 1799.65625 1714.96875 C 1781.28125 1725.621094 1745.90625 1774.203125 1734.476562 1789.28125 C 1723.039062 1804.359375 1711.601562 1819.433594 1711.601562 1819.433594 C 1711.601562 1819.433594 1681.558594 1765.664062 1669.523438 1729.402344 C 1558.921875 1792.023438 1599.824219 1845.820312 1599.824219 1845.820312 C 1599.824219 1845.820312 1523.054688 1763.433594 1659.84375 1690.554688 C 1658.300781 1681.105469 1656.625 1669.488281 1654.835938 1656.707031 C 1521.746094 1722.960938 1566.371094 1784.433594 1566.371094 1784.433594 C 1566.371094 1784.433594 1482.925781 1693.1875 1649.488281 1618.234375 C 1648.625 1612.070312 1648.0625 1599.429688 1647.171875 1593.296875 C 1497.15625 1661.25 1543.210938 1730.320312 1543.210938 1730.320312 C 1543.210938 1730.320312 1455.238281 1637.710938 1639.828125 1562.191406 C 1638.148438 1552.324219 1637.953125 1543.273438 1636.246094 1535.5 C 1468.890625 1605.921875 1517.480469 1665.699219 1517.480469 1665.699219 C 1517.480469 1665.699219 1448.871094 1573.621094 1626.007812 1504.816406 C 1627.660156 1504.175781 1624.769531 1503.585938 1626.394531 1502.96875 C 1624.144531 1493.1875 1624.578125 1484.320312 1623.15625 1476.398438 C 1619.734375 1477.671875 1625.523438 1476.085938 1621.886719 1477.234375 C 1479.460938 1522.195312 1491.230469 1606.117188 1490.035156 1597.039062 C 1479.460938 1549.117188 1476.03125 1493.121094 1610.292969 1440.679688 C 1617.566406 1437.835938 1608.695312 1438.792969 1615.5625 1436.675781 C 1615.496094 1429.835938 1614.625 1420.484375 1612.851562 1410.890625 C 1603.777344 1413.507812 1609.613281 1413.546875 1599.886719 1417.609375 C 1430.921875 1488.207031 1469.171875 1545.890625 1469.171875 1545.890625 C 1469.171875 1545.890625 1415.425781 1437.117188 1584.867188 1384.28125 C 1599.019531 1379.867188 1601.269531 1374.71875 1613.46875 1371.570312 C 1615.03125 1352.476562 1608.304688 1310.265625 1602.96875 1277.730469 C 1592.160156 1211.855469 1582.808594 1212.871094 1532.066406 1210.957031 C 1474.890625 1208.804688 1395.988281 1401.578125 1395.988281 1420.957031 C 1395.988281 1433.144531 1415.425781 1500.652344 1420.003906 1532.964844 C 1424.578125 1565.273438 1436.007812 1595.425781 1440.585938 1627.734375 C 1445.160156 1660.042969 1513.773438 1787.125 1548.074219 1825.890625 C 1582.382812 1864.660156 1580.09375 1909.890625 1593.816406 1929.277344 C 1607.539062 1948.664062 1607.535156 1959.4375 1618.972656 1978.820312 C 1630.410156 1998.207031 1650.992188 2013.28125 1655.566406 2034.820312 C 1660.140625 2056.363281 1692.160156 2154.363281 1733.324219 2150.058594 C 1774.496094 2145.75 1813.375 2113.441406 1822.523438 2072.515625 C 1831.007812 2034.578125 1816.804688 1991.742188 1825.953125 1978.820312 C 1835.101562 1965.894531 1831.671875 1960.511719 1859.113281 1928.203125 C 1886.558594 1895.894531 1900.28125 1857.125 1914.003906 1831.28125 C 1927.726562 1805.4375 1931.992188 1736.453125 1911.71875 1714.972656 C 1911.230469 1714.453125 1910.691406 1713.957031 1910.132812 1713.46875 Z M 1910.132812 1713.464844 "/>
<path style=" stroke:none;fill-rule:nonzero;fill:rgb(45.882353%,38.431373%,27.45098%);fill-opacity:1;" d="M 1707.035156 2063.941406 C 1694.1875 2101.960938 1692.167969 2154.40625 1733.335938 2150.101562 C 1774.503906 2145.792969 1813.382812 2113.484375 1822.53125 2072.558594 C 1831.015625 2034.621094 1816.8125 1991.785156 1825.964844 1978.859375 C 1835.113281 1965.9375 1831.679688 1960.554688 1859.125 1928.246094 C 1886.566406 1895.9375 1900.289062 1857.167969 1914.011719 1831.324219 C 1927.734375 1805.480469 1937.519531 1741.363281 1912.871094 1734.402344 C 1878.566406 1724.707031 1837.972656 1761.769531 1789.367188 1855.558594 C 1762.476562 1907.449219 1739.625 1991.253906 1739.625 1991.253906 C 1739.625 1991.253906 1719.042969 2028.410156 1707.035156 2063.945312 Z M 1707.035156 2063.941406 "/>
<path style=" stroke:none;fill-rule:nonzero;fill:rgb(82.745098%,81.960784%,82.745098%);fill-opacity:1;" d="M 1044.109375 1510.515625 C 1044.109375 1510.515625 1031.84375 1503.265625 1027.757812 1501.921875 C 1023.265625 1500.453125 1009.796875 1499.265625 1009.796875 1499.265625 C 1009.796875 1499.265625 1023.121094 1487.0625 1027.5625 1480.839844 C 1032.691406 1473.65625 1044.644531 1445.640625 1044.644531 1445.640625 C 1044.644531 1445.640625 1056.507812 1445.949219 1060.464844 1447.128906 C 1065.945312 1448.761719 1082.390625 1456.894531 1082.390625 1456.894531 Z M 1044.109375 1510.515625 "/>
<path style=" stroke:none;fill-rule:nonzero;fill:rgb(82.745098%,81.960784%,82.745098%);fill-opacity:1;" d="M 1686.410156 1828.066406 C 1686.410156 1828.066406 1695.984375 1821.152344 1700.132812 1819.988281 C 1704.6875 1818.710938 1711.28125 1815.949219 1711.28125 1815.949219 C 1711.28125 1815.949219 1703.78125 1795.90625 1700.132812 1789.296875 C 1691.96875 1774.5 1686.777344 1765.546875 1686.777344 1765.546875 C 1686.777344 1765.546875 1678.660156 1765.34375 1674.652344 1766.355469 C 1669.097656 1767.753906 1659.136719 1775.171875 1659.136719 1775.171875 Z M 1686.410156 1828.066406 "/>
<path style=" stroke:none;fill-rule:nonzero;fill:rgb(13.72549%,12.156863%,12.54902%);fill-opacity:1;" d="M 1046.660156 676.277344 C 1048.886719 676.777344 1051.140625 676.90625 1053.382812 677.003906 C 1055.625 677.105469 1057.867188 677.078125 1060.109375 677.03125 C 1064.589844 676.925781 1069.066406 676.636719 1073.546875 676.273438 C 1078.019531 675.910156 1082.46875 675.457031 1086.886719 674.804688 C 1087.988281 674.636719 1089.09375 674.460938 1090.1875 674.253906 C 1091.289062 674.066406 1092.382812 673.84375 1093.464844 673.582031 C 1094.554688 673.332031 1095.636719 673.046875 1096.703125 672.707031 C 1097.238281 672.539062 1097.769531 672.359375 1098.292969 672.148438 C 1098.820312 671.945312 1099.339844 671.71875 1099.832031 671.429688 C 1099.074219 672.308594 1098.089844 672.972656 1097.109375 673.589844 C 1096.113281 674.191406 1095.070312 674.71875 1094.007812 675.195312 C 1091.875 676.121094 1089.671875 676.875 1087.433594 677.449219 C 1082.957031 678.628906 1078.371094 679.25 1073.796875 679.574219 C 1069.226562 679.894531 1064.621094 679.945312 1060.027344 679.550781 C 1057.734375 679.351562 1055.445312 679.019531 1053.183594 678.539062 C 1052.058594 678.28125 1050.933594 678.011719 1049.835938 677.640625 C 1048.742188 677.277344 1047.648438 676.871094 1046.660156 676.277344 Z M 1046.660156 676.277344 "/>
<path style=" stroke:none;fill-rule:nonzero;fill:rgb(13.72549%,12.156863%,12.54902%);fill-opacity:1;" d="M 1080.933594 601.964844 C 1083.027344 606.550781 1084.996094 611.164062 1087.007812 615.738281 C 1088.035156 618.015625 1089.019531 620.308594 1090.101562 622.542969 C 1091.167969 624.78125 1092.25 627.019531 1093.519531 629.074219 C 1094.148438 630.109375 1094.777344 631.085938 1095.574219 631.851562 C 1095.886719 632.160156 1096.1875 632.5625 1096.375 633.070312 C 1096.566406 633.578125 1096.589844 634.171875 1096.476562 634.660156 C 1096.242188 635.65625 1095.722656 636.289062 1095.222656 636.820312 C 1094.191406 637.863281 1093.078125 638.570312 1091.953125 639.238281 C 1090.828125 639.898438 1089.671875 640.460938 1088.503906 640.972656 C 1083.835938 643.027344 1079.003906 644.519531 1074.074219 645.582031 C 1078.671875 643.535156 1083.277344 641.539062 1087.648438 639.226562 C 1088.730469 638.632812 1089.792969 638.019531 1090.808594 637.371094 C 1091.808594 636.71875 1092.789062 636 1093.488281 635.214844 C 1093.824219 634.828125 1094.085938 634.414062 1094.117188 634.171875 C 1094.136719 634.050781 1094.128906 633.992188 1094.101562 633.910156 C 1094.066406 633.828125 1093.996094 633.710938 1093.855469 633.582031 C 1092.832031 632.613281 1092.070312 631.46875 1091.386719 630.375 C 1088.769531 625.890625 1086.910156 621.203125 1085.203125 616.457031 C 1083.515625 611.707031 1082.050781 606.886719 1080.933594 601.964844 Z M 1080.933594 601.964844 "/>
<path style=" stroke:none;fill-rule:nonzero;fill:rgb(13.72549%,12.156863%,12.54902%);fill-opacity:1;" d="M 1053.632812 600.457031 C 1047.144531 596.144531 1040.570312 591.996094 1033.898438 588.046875 C 1027.210938 584.136719 1020.402344 580.417969 1013.351562 577.421875 C 1009.828125 575.953125 1006.214844 574.679688 1002.582031 573.945312 C 998.984375 573.277344 995.160156 573.222656 991.507812 573.730469 C 987.832031 574.210938 984.246094 575.324219 980.953125 577.015625 C 979.300781 577.855469 977.734375 578.859375 976.242188 579.957031 C 975.5 580.507812 974.78125 581.09375 974.09375 581.707031 C 973.425781 582.308594 972.726562 583 972.210938 583.609375 L 972.527344 582.601562 C 972.5625 583.257812 972.683594 584.082031 972.824219 584.828125 C 972.96875 585.59375 973.152344 586.355469 973.363281 587.113281 C 973.789062 588.621094 974.3125 590.113281 974.964844 591.554688 C 976.261719 594.4375 978.019531 597.117188 980.121094 599.519531 C 982.242188 601.90625 984.722656 604.003906 987.449219 605.769531 C 990.171875 607.535156 993.128906 608.984375 996.207031 610.175781 C 992.992188 609.429688 989.832031 608.324219 986.859375 606.78125 C 983.886719 605.246094 981.09375 603.285156 978.675781 600.894531 C 976.238281 598.527344 974.195312 595.730469 972.628906 592.679688 C 971.851562 591.15625 971.171875 589.570312 970.652344 587.925781 C 970.390625 587.101562 970.164062 586.269531 969.972656 585.421875 C 969.785156 584.554688 969.628906 583.753906 969.539062 582.765625 L 969.492188 582.214844 L 969.859375 581.761719 C 970.578125 580.863281 971.257812 580.175781 972.011719 579.453125 C 972.753906 578.75 973.53125 578.085938 974.332031 577.457031 C 975.933594 576.191406 977.664062 575.101562 979.464844 574.152344 C 983.074219 572.257812 987.019531 570.996094 991.054688 570.433594 C 995.113281 569.914062 999.167969 570 1003.214844 570.785156 C 1007.214844 571.601562 1010.9375 573.066406 1014.546875 574.679688 C 1018.152344 576.304688 1021.632812 578.140625 1025.015625 580.121094 C 1028.40625 582.089844 1031.726562 584.167969 1034.960938 586.359375 C 1038.207031 588.53125 1041.382812 590.808594 1044.5 593.152344 C 1047.617188 595.5 1050.675781 597.921875 1053.632812 600.457031 Z M 1053.632812 600.457031 "/>
<path style=" stroke:none;fill-rule:nonzero;fill:rgb(13.72549%,12.156863%,12.54902%);fill-opacity:1;" d="M 1093.460938 594.292969 C 1095.5625 591.140625 1097.832031 588.097656 1100.195312 585.128906 C 1102.566406 582.164062 1105.03125 579.269531 1107.632812 576.488281 C 1110.214844 573.6875 1112.9375 571.007812 1115.8125 568.476562 C 1118.679688 565.9375 1121.71875 563.558594 1125.023438 561.503906 C 1128.324219 559.46875 1131.890625 557.644531 1135.925781 556.875 C 1136.4375 556.78125 1136.921875 556.703125 1137.46875 556.644531 C 1137.941406 556.597656 1138.402344 556.546875 1138.914062 556.511719 C 1139.910156 556.441406 1140.882812 556.398438 1141.875 556.398438 C 1143.847656 556.398438 1145.824219 556.542969 1147.78125 556.851562 C 1151.695312 557.488281 1155.5 558.796875 1158.980469 560.691406 C 1160.714844 561.640625 1162.382812 562.722656 1163.929688 563.960938 C 1164.703125 564.582031 1165.449219 565.238281 1166.167969 565.929688 C 1166.894531 566.636719 1167.550781 567.3125 1168.246094 568.191406 L 1168.613281 568.652344 L 1168.558594 569.203125 C 1168.464844 570.191406 1168.300781 570.992188 1168.109375 571.859375 C 1167.914062 572.707031 1167.679688 573.539062 1167.417969 574.359375 C 1166.890625 576.003906 1166.199219 577.585938 1165.40625 579.105469 C 1163.820312 582.144531 1161.761719 584.933594 1159.308594 587.289062 C 1158.085938 588.46875 1156.78125 589.554688 1155.402344 590.53125 C 1154.019531 591.5 1152.574219 592.363281 1151.082031 593.125 C 1148.097656 594.652344 1144.929688 595.734375 1141.707031 596.460938 C 1144.792969 595.285156 1147.757812 593.847656 1150.496094 592.097656 C 1153.226562 590.347656 1155.722656 588.265625 1157.855469 585.890625 C 1159.96875 583.496094 1161.75 580.832031 1163.0625 577.957031 C 1163.722656 576.519531 1164.246094 575.03125 1164.691406 573.523438 C 1164.910156 572.769531 1165.09375 572.007812 1165.242188 571.246094 C 1165.390625 570.5 1165.515625 569.675781 1165.554688 569.019531 L 1165.871094 570.035156 C 1165.371094 569.445312 1164.699219 568.765625 1164.054688 568.175781 C 1163.390625 567.574219 1162.699219 567 1161.984375 566.457031 C 1160.550781 565.367188 1159.039062 564.378906 1157.445312 563.535156 C 1154.269531 561.839844 1150.808594 560.695312 1147.253906 560.132812 C 1143.722656 559.550781 1139.988281 559.515625 1136.511719 560.042969 C 1133.089844 560.683594 1129.730469 562.203125 1126.566406 564.054688 C 1120.238281 567.824219 1114.5 572.730469 1109.042969 577.882812 C 1103.609375 583.082031 1098.421875 588.570312 1093.460938 594.292969 Z M 1093.460938 594.292969 "/>
<path style=" stroke:none;fill-rule:nonzero;fill:rgb(100%,100%,100%);fill-opacity:1;" d="M 1053.632812 600.457031 C 1053.632812 600.457031 1019.292969 574.085938 1000.554688 571.996094 C 981.136719 569.828125 971.035156 582.683594 971.035156 582.683594 C 971.035156 582.683594 972.132812 602.777344 996.210938 610.175781 C 1032.675781 621.375 1053.632812 600.457031 1053.632812 600.457031 Z M 1053.632812 600.457031 "/>
<path style=" stroke:none;fill-rule:nonzero;fill:rgb(100%,100%,100%);fill-opacity:1;" d="M 1093.460938 594.292969 C 1093.460938 594.292969 1118.855469 560.242188 1137.605469 558.257812 C 1157.039062 556.199219 1167.058594 569.113281 1167.058594 569.113281 C 1167.058594 569.113281 1165.835938 589.199219 1141.707031 596.460938 C 1105.171875 607.453125 1093.460938 594.292969 1093.460938 594.292969 Z M 1093.460938 594.292969 "/>
<g clip-path="url(#clip1)" clip-rule="nonzero">
<g clip-path="url(#clip2)" clip-rule="nonzero">
<path style=" stroke:none;fill-rule:nonzero;fill:rgb(13.72549%,12.156863%,12.54902%);fill-opacity:1;" d="M 1030.382812 595.832031 C 1033.28125 611.207031 1026.171875 625.25 1014.511719 627.191406 C 1002.855469 629.140625 991.058594 618.257812 988.160156 602.886719 C 985.265625 587.511719 992.371094 573.46875 1004.03125 571.523438 C 1015.6875 569.574219 1027.488281 580.460938 1030.382812 595.832031 Z M 1030.382812 595.832031 "/>
</g>
</g>
<g clip-path="url(#clip3)" clip-rule="nonzero">
<g clip-path="url(#clip4)" clip-rule="nonzero">
<path style=" stroke:none;fill-rule:nonzero;fill:rgb(13.72549%,12.156863%,12.54902%);fill-opacity:1;" d="M 1153.683594 586.898438 C 1150.382812 602.195312 1138.292969 612.796875 1126.691406 610.574219 C 1115.085938 608.347656 1108.359375 594.148438 1111.664062 578.847656 C 1114.96875 563.546875 1127.054688 552.949219 1138.660156 555.167969 C 1150.265625 557.394531 1156.992188 571.597656 1153.683594 586.898438 Z M 1153.683594 586.898438 "/>
</g>
</g>
<path style=" stroke:none;fill-rule:nonzero;fill:rgb(88.235294%,19.607843%,13.72549%);fill-opacity:1;" d="M 955.757812 559.546875 C 955.976562 559.347656 956.085938 559.253906 956.234375 559.128906 L 956.644531 558.796875 C 956.910156 558.585938 957.171875 558.386719 957.433594 558.195312 C 957.960938 557.808594 958.484375 557.445312 959.011719 557.101562 C 960.070312 556.410156 961.144531 555.777344 962.238281 555.199219 C 964.425781 554.042969 966.6875 553.082031 969.003906 552.304688 C 973.632812 550.757812 978.464844 549.972656 983.25 549.921875 C 988.035156 549.855469 992.777344 550.535156 997.261719 551.726562 C 1001.824219 552.964844 1006.019531 554.695312 1010.113281 556.609375 C 1018.265625 560.476562 1025.882812 565.097656 1033.285156 569.988281 C 1040.667969 574.902344 1047.835938 580.101562 1054.746094 585.605469 C 1047.351562 580.777344 1039.75 576.292969 1032.003906 572.132812 C 1024.253906 568 1016.328125 564.171875 1008.195312 561.222656 C 1004.144531 559.765625 999.996094 558.523438 995.945312 557.832031 C 991.816406 557.140625 987.695312 556.960938 983.664062 557.398438 C 979.644531 557.828125 975.738281 558.863281 972.125 560.46875 C 970.320312 561.269531 968.589844 562.214844 966.96875 563.28125 C 966.15625 563.8125 965.375 564.382812 964.640625 564.972656 C 964.269531 565.265625 963.914062 565.570312 963.578125 565.871094 L 963.09375 566.320312 L 962.878906 566.535156 C 962.820312 566.59375 962.730469 566.6875 962.75 566.679688 Z M 955.757812 559.546875 "/>
<path style=" stroke:none;fill-rule:nonzero;fill:rgb(88.235294%,19.607843%,13.72549%);fill-opacity:1;" d="M 1168.910156 547.125 C 1168.925781 547.128906 1168.820312 547.050781 1168.753906 547.003906 L 1168.503906 546.828125 L 1167.953125 546.460938 C 1167.570312 546.21875 1167.171875 545.980469 1166.757812 545.75 C 1165.933594 545.289062 1165.074219 544.859375 1164.191406 544.464844 C 1162.421875 543.675781 1160.566406 543.019531 1158.660156 542.515625 C 1154.855469 541.5 1150.851562 541.085938 1146.832031 541.277344 C 1142.8125 541.472656 1138.769531 542.273438 1134.851562 543.589844 C 1130.957031 544.902344 1127.105469 546.777344 1123.355469 548.859375 C 1115.851562 553.066406 1108.699219 558.125 1101.777344 563.460938 C 1094.867188 568.828125 1088.152344 574.496094 1081.710938 580.472656 C 1087.5625 573.910156 1093.726562 567.613281 1100.160156 561.5625 C 1106.609375 555.535156 1113.328125 549.742188 1120.714844 544.621094 C 1124.421875 542.078125 1128.292969 539.695312 1132.566406 537.78125 C 1136.820312 535.886719 1141.367188 534.507812 1146.085938 533.824219 C 1150.800781 533.144531 1155.671875 533.164062 1160.457031 533.960938 C 1162.847656 534.355469 1165.21875 534.941406 1167.546875 535.726562 C 1168.714844 536.117188 1169.867188 536.558594 1171.015625 537.0625 C 1171.589844 537.316406 1172.164062 537.585938 1172.738281 537.875 L 1173.613281 538.335938 L 1174.066406 538.589844 C 1174.230469 538.6875 1174.355469 538.761719 1174.597656 538.917969 L 1168.90625 547.125 Z M 1168.910156 547.125 "/>
<path style=" stroke:none;fill-rule:nonzero;fill:rgb(88.235294%,19.607843%,13.72549%);fill-opacity:1;" d="M 990.035156 543.8125 L 1003.757812 534.117188 L 1017.476562 543.8125 L 1019.195312 559.964844 L 1039.777344 555.117188 L 1046.640625 566.425781 L 1080.945312 538.964844 L 1079.226562 566.425781 L 1099.8125 559.964844 L 1128.972656 527.65625 L 1123.824219 553.503906 L 1147.839844 540.582031 L 1149.554688 553.503906 L 1159.847656 547.042969 L 1161.5625 569.65625 L 1178.714844 547.042969 C 1178.714844 547.042969 1176.953125 571.527344 1166.683594 589.171875 C 1156.417969 606.8125 1140.980469 626.199219 1140.980469 626.199219 C 1140.980469 626.199219 1190.722656 584.195312 1199.300781 556.734375 C 1207.875 529.273438 1215.09375 476.730469 1205.019531 436.660156 C 1194.726562 395.734375 1146.183594 305.175781 1024.34375 323.582031 C 903.128906 341.890625 900.839844 442.042969 900.839844 493.742188 C 900.839844 545.4375 900.839844 542.203125 907.703125 579.363281 C 914.5625 616.515625 954.585938 646.671875 954.585938 646.671875 C 954.585938 646.671875 960.875 647.210938 950.582031 611.671875 C 940.292969 576.132812 934.691406 553.710938 950.582031 579.363281 C 954.207031 585.210938 963.898438 593.414062 970.089844 601.132812 C 979.28125 612.59375 974.597656 626.210938 974.597656 626.210938 C 974.597656 626.210938 983.898438 613.667969 979.492188 600.984375 C 975.898438 590.640625 980.898438 582.089844 979.742188 570.476562 C 974.597656 518.785156 959.160156 514.746094 967.738281 516.363281 C 976.3125 517.976562 990.035156 543.824219 990.035156 543.824219 Z M 990.035156 543.8125 "/>
<path style=" stroke:none;fill-rule:nonzero;fill:rgb(90.588235%,75.686275%,67.058824%);fill-opacity:1;" d="M 1177.609375 612.195312 C 1200.65625 626.8125 1205.777344 615.699219 1217.660156 617.246094 C 1226.285156 618.371094 1239.035156 609 1239.035156 597.746094 C 1239.035156 586.496094 1248.792969 581.308594 1238.660156 572.621094 C 1233.410156 568.121094 1218.035156 565.121094 1218.035156 565.121094 C 1218.035156 565.121094 1231.46875 580.53125 1227.785156 585.746094 C 1223.285156 592.121094 1200.785156 580.871094 1200.785156 580.871094 C 1200.785156 580.871094 1190.351562 585.089844 1188.035156 588.746094 C 1185.882812 592.144531 1205.21875 605.902344 1201.160156 613.121094 C 1195.921875 622.4375 1177.609375 612.195312 1177.609375 612.195312 Z M 1177.609375 612.195312 "/>
<path style=" stroke:none;fill-rule:nonzero;fill:rgb(93.72549%,78.039216%,69.019608%);fill-opacity:1;" d="M 1205.734375 575.507812 C 1209.25 581.550781 1202.210938 588.125 1195.675781 585.875 C 1174.398438 578.542969 1170.265625 589.886719 1165.488281 582.667969 C 1162.75 578.535156 1169.425781 569.796875 1173.410156 568.265625 C 1181.101562 565.3125 1202.21875 569.460938 1205.734375 575.507812 Z M 1205.734375 575.507812 "/>
<path style=" stroke:none;fill-rule:nonzero;fill:rgb(81.176471%,61.960784%,46.27451%);fill-opacity:1;" d="M 653.015625 968.714844 C 653.015625 968.714844 664.414062 975.898438 668.214844 977.21875 C 672.058594 978.554688 688.097656 985.554688 688.097656 985.554688 C 688.097656 985.554688 698.394531 972.492188 702.96875 966 C 710.371094 955.488281 715.695312 940.527344 715.695312 940.527344 C 715.695312 940.527344 703.84375 935.996094 700.15625 934.71875 C 696.199219 933.347656 688.71875 927.179688 688.71875 927.179688 C 688.71875 927.179688 680.171875 939.84375 671.566406 949.792969 C 666.5 955.652344 653.015625 968.714844 653.015625 968.714844 Z M 653.015625 968.714844 "/>
<path style=" stroke:none;fill-rule:nonzero;fill:rgb(81.176471%,61.960784%,46.27451%);fill-opacity:1;" d="M 1251.558594 665.992188 C 1251.558594 665.992188 1267.707031 671.542969 1272.199219 675.300781 C 1277.328125 679.589844 1292.71875 689.234375 1292.71875 689.234375 C 1292.71875 689.234375 1293.492188 685.96875 1300.609375 678.417969 C 1309.152344 669.363281 1331.347656 655.109375 1331.347656 655.109375 C 1331.347656 655.109375 1322.816406 645.46875 1317.6875 641.175781 C 1313.199219 637.421875 1299.734375 622.925781 1299.734375 622.925781 C 1299.734375 622.925781 1282.671875 632.136719 1274.703125 640.59375 C 1267.007812 648.746094 1251.558594 665.992188 1251.558594 665.992188 Z M 1251.558594 665.992188 "/>
<path style=" stroke:none;fill-rule:nonzero;fill:rgb(74.509804%,33.333333%,15.294118%);fill-opacity:1;" d="M 928.535156 453 C 905.285156 454.5 908.476562 527.605469 913.535156 555 C 918.59375 582.398438 931.535156 604.5 931.535156 604.5 C 931.535156 604.5 921.769531 561.1875 924.035156 534 C 927.035156 498 970.535156 588 970.535156 588 C 970.535156 588 933.785156 510 944.285156 490.5 C 952.472656 475.296875 957.960938 451.101562 928.535156 453 Z M 928.535156 453 "/>
<path style=" stroke:none;fill-rule:nonzero;fill:rgb(74.509804%,33.333333%,15.294118%);fill-opacity:1;" d="M 1203.035156 454.5 C 1197.785156 417 1143.117188 355.953125 1116.785156 357.75 C 1081.425781 360.171875 1065.785156 439.5 1065.785156 439.5 C 1065.785156 439.5 1046.285156 443.25 1030.542969 439.152344 C 994.878906 429.867188 951.785156 385.5 951.785156 385.5 C 951.785156 385.5 994.503906 455.230469 1032.785156 480.75 C 1046.285156 489.75 1081.535156 506.25 1081.535156 506.25 C 1081.535156 506.25 1076.183594 447.574219 1086.785156 444.75 C 1098.015625 441.761719 1113.910156 468.960938 1112.285156 498.75 C 1110.035156 540 1086.785156 559.5 1086.785156 559.5 C 1086.785156 559.5 1104.820312 551.761719 1116.785156 526.5 C 1137.035156 483.75 1128.785156 459.75 1127.386719 450.171875 C 1124.441406 429.964844 1155.59375 447.589844 1155.375 467.25 C 1155.035156 497.25 1167.785156 511.5 1167.785156 511.5 C 1167.785156 511.5 1155.953125 449.105469 1176.035156 443.25 C 1194.035156 438 1203.035156 454.5 1203.035156 454.5 Z M 1203.035156 454.5 "/>
<path style=" stroke:none;fill-rule:nonzero;fill:rgb(74.509804%,33.333333%,15.294118%);fill-opacity:1;" d="M 1171.460938 518.167969 C 1163.886719 531.175781 1189.183594 514.5 1195.503906 494.25 C 1201.832031 474.003906 1209.472656 450.429688 1179.003906 450.75 C 1159.550781 450.957031 1179.027344 505.160156 1171.460938 518.167969 Z M 1171.460938 518.167969 "/>
<path style=" stroke:none;fill-rule:nonzero;fill:rgb(74.509804%,33.333333%,15.294118%);fill-opacity:1;" d="M 966.035156 489.75 C 959.867188 498.660156 983.140625 526.015625 990.785156 534.75 C 996.035156 540.75 992.269531 513.625 1002.035156 515.25 C 1033.535156 520.5 1075.535156 533.25 1075.535156 533.25 C 1075.535156 533.25 984.222656 463.472656 966.035156 489.75 Z M 966.035156 489.75 "/>
<path style=" stroke:none;fill-rule:nonzero;fill:rgb(13.72549%,12.156863%,12.54902%);fill-opacity:1;" d="M 840.589844 1355.867188 C 840.589844 1355.867188 939.597656 1193.851562 962.105469 1155.59375 C 984.605469 1117.339844 847.339844 1292.859375 820.339844 1326.609375 C 793.339844 1360.359375 840.589844 1355.863281 840.589844 1355.863281 Z M 840.589844 1355.867188 "/>
<path style=" stroke:none;fill-rule:nonzero;fill:rgb(13.72549%,12.156863%,12.54902%);fill-opacity:1;" d="M 950.882812 1110.617188 L 687.613281 1245.632812 C 687.613281 1245.632812 647.105469 1223.125 669.609375 1211.875 C 692.113281 1200.621094 950.890625 1110.617188 950.890625 1110.617188 Z M 950.882812 1110.617188 "/>
<path style=" stroke:none;fill-rule:nonzero;fill:rgb(13.72549%,12.156863%,12.54902%);fill-opacity:1;" d="M 1034.132812 1220.867188 L 1007.132812 1367.132812 C 1007.132812 1367.132812 989.128906 1349.128906 980.128906 1353.628906 C 971.128906 1358.128906 1034.132812 1220.867188 1034.132812 1220.867188 Z M 1034.132812 1220.867188 "/>
<path style=" stroke:none;fill-rule:nonzero;fill:rgb(13.72549%,12.156863%,12.54902%);fill-opacity:1;" d="M 856.339844 1088.117188 C 856.339844 1088.117188 1056.613281 1054.363281 1070.113281 1054.363281 C 1083.613281 1054.363281 943.707031 1049.035156 930.597656 1058.863281 C 912.59375 1072.363281 856.339844 1088.117188 856.339844 1088.117188 Z M 856.339844 1088.117188 "/>
<path style=" stroke:none;fill-rule:nonzero;fill:rgb(13.72549%,12.156863%,12.54902%);fill-opacity:1;" d="M 1425.710938 1088.191406 L 1488.640625 1139.847656 C 1488.640625 1139.847656 1497.640625 1169.101562 1484.140625 1175.851562 C 1470.640625 1182.601562 1443.636719 1169.101562 1443.636719 1169.101562 Z M 1425.710938 1088.191406 "/>
<path style=" stroke:none;fill-rule:nonzero;fill:rgb(13.72549%,12.156863%,12.54902%);fill-opacity:1;" d="M 687.566406 1292.867188 L 921.558594 1139.867188 L 703.324219 1297.367188 Z M 687.566406 1292.867188 "/>
<path style=" stroke:none;fill-rule:nonzero;fill:rgb(80.392157%,70.196078%,13.333333%);fill-opacity:1;" d="M 1047.632812 847.335938 C 1047.632812 847.335938 1084.972656 852.085938 1109.117188 847.4375 C 1131.335938 843.160156 1153.890625 822.507812 1148.894531 829.335938 C 1144.59375 835.210938 1135.394531 845.085938 1110.640625 851.835938 C 1085.890625 858.585938 1047.636719 847.335938 1047.636719 847.335938 Z M 1047.632812 847.335938 "/>
<path style=" stroke:none;fill-rule:nonzero;fill:rgb(80.392157%,70.196078%,13.333333%);fill-opacity:1;" d="M 1275.933594 760.816406 C 1275.933594 760.816406 1267.277344 781.203125 1251.765625 792 C 1238.519531 801.21875 1250.007812 799.035156 1254.765625 795.75 C 1264.5 789.03125 1275.933594 760.816406 1275.933594 760.816406 Z M 1275.933594 760.816406 "/>
<path style=" stroke:none;fill-rule:nonzero;fill:rgb(80.392157%,70.196078%,13.333333%);fill-opacity:1;" d="M 1177.535156 800.25 C 1177.535156 800.25 1186.535156 806.25 1188.785156 806.25 C 1191.035156 806.25 1191.785156 810.75 1191.785156 810.75 C 1191.785156 810.75 1185.785156 813.75 1182.785156 810 C 1179.785156 806.25 1177.535156 800.25 1177.535156 800.25 Z M 1177.535156 800.25 "/>
</g>
</svg>
